<svg width="16" height="16" viewBox="0 0 16 16" fill="none" xmlns="http://www.w3.org/2000/svg">
<path d="M8.00002 5.24805C6.48202 5.24805 5.24902 6.48105 5.24902 7.99905C5.24902 9.51705 6.48202 10.753 8.00002 10.753C9.51802 10.753 10.754 9.51705 10.754 7.99905C10.754 6.48105 9.51802 5.24805 8.00002 5.24805Z" fill="white"/>
<path d="M12.152 0.5H3.848C2.003 0.5 0.5 2.003 0.5 3.848V12.152C0.5 14 2.003 15.5 3.848 15.5H12.152C14 15.5 15.5 14 15.5 12.152V3.848C15.5 2.003 14 0.5 12.152 0.5ZM8 12.86C5.321 12.86 3.14 10.679 3.14 8C3.14 5.321 5.321 3.143 8 3.143C10.679 3.143 12.86 5.321 12.86 8C12.86 10.679 10.679 12.86 8 12.86ZM12.962 4.025C12.395 4.025 11.933 3.566 11.933 2.999C11.933 2.432 12.395 1.97 12.962 1.97C13.529 1.97 13.991 2.432 13.991 2.999C13.991 3.566 13.529 4.025 12.962 4.025Z" fill="white"/>
</svg>
