<svg width="13" height="17" viewBox="0 0 13 17" fill="none" xmlns="http://www.w3.org/2000/svg">
<path fill-rule="evenodd" clip-rule="evenodd" d="M0 6.5C0 2.91582 2.91582 0 6.5 0C10.0842 0 13 2.91582 13 6.5C13 12.8226 6.95806 16.6086 6.70036 16.7669C6.63918 16.8044 6.56959 16.8235 6.5 16.8235C6.43042 16.8235 6.36083 16.8044 6.29965 16.7669C6.04195 16.6086 0 12.8226 0 6.5ZM3.05882 6.50001C3.05882 8.39725 4.60276 9.94119 6.5 9.94119C8.39724 9.94119 9.94118 8.39725 9.94118 6.50001C9.94118 4.60278 8.39724 3.05884 6.5 3.05884C4.60276 3.05884 3.05882 4.60278 3.05882 6.50001Z" fill="white"/>
</svg>
