<svg width="16" height="13" viewBox="0 0 16 13" fill="none" xmlns="http://www.w3.org/2000/svg">
<path fill-rule="evenodd" clip-rule="evenodd" d="M6.09356 5.42272L1.28498 0.699267C1.23656 0.651719 1.24361 0.573416 1.29979 0.534947C1.79025 0.199137 2.38697 0 3.0298 0H12.9701C13.6129 0 14.2096 0.199103 14.7001 0.534947C14.7563 0.573416 14.7633 0.651719 14.7149 0.699267L9.90632 5.42272C8.85669 6.45138 7.14233 6.45049 6.09356 5.42272ZM0.346077 1.59776C0.125325 2.00993 0 2.47886 0 2.97517V9.18539C0 10.827 1.36004 12.1603 3.02984 12.1603H12.9702C14.64 12.1603 16 10.827 16 9.18539V2.97517C16 2.4789 15.8746 2.00993 15.6539 1.59776C15.6194 1.53329 15.5319 1.52025 15.4794 1.57175L10.7317 6.23339C9.22738 7.71258 6.77171 7.71173 5.26827 6.23339L0.520559 1.57175C0.4681 1.52025 0.380598 1.53329 0.346077 1.59776Z" fill="white"/>
</svg>
