<svg width="13" height="13" viewBox="0 0 13 13" fill="none" xmlns="http://www.w3.org/2000/svg">
<path d="M9.67724 13C8.68708 13 7.47237 12.5441 6.13413 11.6457C3.42836 9.83006 0.261902 6.10375 0.0164857 3.58587C-0.0619873 2.78059 0.139948 2.13083 0.616816 1.65396L2.27078 0L5.63861 3.36783L5.36931 3.63713C4.93973 4.06678 4.23578 4.76923 3.73249 5.26911C4.19547 5.94902 5.08922 6.95378 5.74867 7.61322C6.37288 8.23688 7.09516 8.8046 7.74612 9.23941C8.21505 8.76738 8.84625 8.13428 9.36247 7.61695L9.63217 7.34741L13 10.716L11.3661 12.3498C10.9313 12.7847 10.3574 13 9.67724 13Z" fill="white"/>
</svg>
